<svg id="_Capa_" data-name="&lt;Capa&gt;" xmlns="http://www.w3.org/2000/svg" viewBox="0 0 6182.07 1842.21"><defs><style>.cls-1{fill:#fff;}.cls-2{fill:#fc0;}.cls-3{fill:#002e6d;}</style></defs><rect class="cls-1" x="1392.18" width="4789.89" height="1841.68"/><rect class="cls-2" width="1417" height="1842.21"/><polygon class="cls-3" points="875 1097.21 710 1097.21 545 1097.21 545 1069.71 545 1042.21 710 1042.21 875 1042.21 875 1069.71 875 1097.21"/><path class="cls-3" d="M765.3,1367.6a55.05,55.05,0,1,1-55.1-54.9,55,55,0,0,1,55.1,54.9m117.5,123.9c-1.6.8-3.2,1.7-4.8,2.5q-13.5,6.45-27.6,12c-2.4.9-4.8,1.7-7.2,2.6-7.5,2.8-15.1,5.3-22.8,7.6l-8,2.4c-9.7,2.7-19.6,5-29.6,6.9-1.9.3-3.8.6-5.6.9-8.6,1.5-17.2,2.7-26,3.6-2.9.3-5.8.6-8.7.8-10.6.9-21.2,1.5-32,1.5-5.7,0-11.2-.6-16.9-.9-83.3-8.4-148.2-78.5-148.2-163.7,0-90.9,73.9-164.6,165.1-164.6s164.9,73.5,165.1,164.3a276.81,276.81,0,0,1-61.1,34.8c3.6-10.9,6.1-22.3,6.1-34.5,0-60.6-49.3-109.7-110.1-109.7s-110.1,49.1-110.1,109.7,49.3,109.7,110.1,109.7h0c163.6,0,299.1-118.7,325.3-274.3h55.6c-18.2,126.5-98.3,233.1-208.6,288.4M329.4,1203h161v165h0a218.58,218.58,0,0,0,34,117c-103.6-57.2-177.7-160.4-195.2-282m766.2-55H985.5A272.78,272.78,0,0,1,925,1319.6a219.95,219.95,0,0,0-379.6-96.8V1149h-221v-1H269.9c0,242.5,197.2,439.1,440.4,439.1s440.4-196.5,440.4-439.1Z" transform="translate(-0.4 -9.79)"/><path class="cls-3" d="M848.8,846.3c-20.2,0-38.8,5.8-55.1,15.2a109.33,109.33,0,0,0-55-15.2,113.33,113.33,0,0,0-28.1,3.7A104.3,104.3,0,0,0,629,861.4a109.73,109.73,0,0,0-55.4-15.1c-60.8,0-110.1,49.1-110.1,109.7v54.9h55V956a54.15,54.15,0,0,1,69.1-52.8A108.67,108.67,0,0,0,573.5,956v54.9h55V956a55,55,0,0,1,55-54.9V1011h55V901.3a55,55,0,0,1,55,54.9v54.9h55V956.2a108.38,108.38,0,0,0-14.1-52.8,54.15,54.15,0,0,1,69.1,52.8v54.9h55V956.2c0-60.6-49.3-109.7-110.1-109.7" transform="translate(-0.4 -9.79)"/><polygon class="cls-3" points="722 773.21 722 747.21 698 747.21 698 773.21 672 773.21 672 797.21 698 797.21 698 823.21 722 823.21 722 797.21 748 797.21 748 773.21 722 773.21"/><path class="cls-3" d="M1691.4,1308.3c0-147.3,76.4-224.4,198.5-224.4,61,0,109.7,24.7,138.1,48.7l-20.3,57.3c-32.7-24.7-67.8-43.1-115.9-43.1-81.4,0-131.3,46.2-131.3,145.5v32.1c0,102.3,51.8,152.2,131.9,152.2,48.1,0,83.2-17.3,115.9-40.7l21,55.5c-29,24-78.3,48.1-138.7,48.1C1763.5,1539.4,1691.4,1455,1691.4,1308.3Z" transform="translate(-0.4 -9.79)"/><path class="cls-3" d="M2073.1,1371.2c0-92.5,50.5-168.3,154.7-168.3s154.7,75.8,154.7,168.3-50.5,168.3-154.7,168.3S2073.1,1463.6,2073.1,1371.2Zm241.3,9.2v-18.5c0-66.6-31.5-103.7-87-103.7s-87,37-87,103.7v18.5c0,66.6,31.5,103.7,87,103.7S2314.4,1447.1,2314.4,1380.4Z" transform="translate(-0.4 -9.79)"/><path class="cls-3" d="M2629.4,1202.8v62.9c-77,0-98.6,9.9-114,56.7V1533h-66V1209h66v75.2C2531.4,1233,2554.9,1202.8,2629.4,1202.8Z" transform="translate(-0.4 -9.79)"/><path class="cls-3" d="M2867.4,1202.8v62.9c-77,0-98.6,9.9-114,56.7V1533h-66V1209h66v75.2C2769.4,1233,2792.9,1202.8,2867.4,1202.8Z" transform="translate(-0.4 -9.79)"/><path class="cls-3" d="M3178.4,1391H2964.5c2.5,65.9,27.7,94.3,83.8,94.3,43.8,0,83.2-13.6,109.1-30.2l12.3,53c-23.4,17.9-68.4,31.4-119,31.4-104.2,0-154.1-59.8-154.1-168.3,0-94.9,47.5-168.3,146.7-168.3,98,0,135,72.7,135,165.2V1391Zm-212.8-49h152.2c-3.1-57.3-27.7-83.2-73.3-83.2C2997.6,1258.8,2969.3,1283.4,2965.6,1342Z" transform="translate(-0.4 -9.79)"/><path class="cls-3" d="M3224.5,1371.2c0-92.5,50.5-168.3,154.7-168.3s154.7,75.8,154.7,168.3-50.5,168.3-154.7,168.3S3224.5,1463.6,3224.5,1371.2Zm241.9,9.2v-18.5c0-66.6-31.5-103.7-87-103.7s-87,37-87,103.7v18.5c0,66.6,31.5,103.7,87,103.7S3466.4,1447.1,3466.4,1380.4Z" transform="translate(-0.4 -9.79)"/><path class="cls-3" d="M3572.7,1508.6l13.6-52.4c33.3,16.6,65.3,25.9,101.7,25.9,35.7,0,60.4-8.6,60.4-38.8,0-28.4-21-35.1-60.4-44.4l-8-1.8c-61.6-14.2-103.5-33.9-103.5-95.5,0-47.5,33.3-98.6,120.8-98.6,47.5,0,84.4,14.2,108.5,29.6l-12.3,55.5c-25.9-16-53.6-27.7-96.2-27.7-40.1,0-59.2,12.9-59.2,37,0,25.9,14.2,33.3,65.9,45l8,1.8c48.7,11.1,99.2,26.5,99.2,96.2,0,56.7-38.2,99.2-122.7,99.2C3644.2,1539.4,3596.1,1526.5,3572.7,1508.6Z" transform="translate(-0.4 -9.79)"/><path class="cls-3" d="M4441.4,1090v443h-66V1172.4a510,510,0,0,1-17.3,56.6l-91.3,240H4191l-91.3-240c-8-20.9-13-36.9-17.3-55.4V1533h-67V1090h99.3l114.1,307.5L4342.9,1090Z" transform="translate(-0.4 -9.79)"/><path class="cls-3" d="M4782.4,1335.2V1533h-66v-57.3c-17.3,40.7-46.9,63.5-101.8,63.5-59.8,0-97.5-38.8-97.5-93.1,0-59.8,42.6-96.2,118.4-99.8l80.8-3.7v-3.1c0-62.3-22.8-78.3-69.7-78.3-43.8,0-77.7,12.3-104.2,27.7l-12.3-54.9c29-17.9,72.8-31.4,119-31.4C4748.5,1202.6,4782.4,1253.8,4782.4,1335.2Zm-66,113v-57.9l-69.6,4.3c-48.1,3.1-67.8,14.2-67.8,46.2,0,31.4,16.6,46.2,51.2,46.2C4664,1487,4701,1477.8,4716.4,1448.2Z" transform="translate(-0.4 -9.79)"/><path class="cls-3" d="M5042.4,1202.8v62.9c-77,0-98.6,9.9-114,56.7V1533h-66V1209h66v75.2C4944.4,1233,4967.9,1202.8,5042.4,1202.8Z" transform="translate(-0.4 -9.79)"/><path class="cls-3" d="M5206.5,1393.8l-40,46.2v93h-66V1078h66v278.2L5290.9,1209h75.8l-118.9,137.4L5374.7,1533h-75.1Z" transform="translate(-0.4 -9.79)"/><path class="cls-3" d="M5686.4,1391H5472.5c2.5,65.9,27.7,94.3,83.8,94.3,43.8,0,83.2-13.6,109.1-30.2l12.3,53c-23.4,17.9-68.4,31.4-119,31.4-104.2,0-154.1-59.8-154.1-168.3,0-94.9,47.5-168.3,146.7-168.3,98,0,135,72.7,135,165.2V1391Zm-213.5-49h152.2c-3.1-57.3-27.7-83.2-73.3-83.2C5504.9,1258.8,5476.6,1283.4,5472.9,1342Z" transform="translate(-0.4 -9.79)"/><path class="cls-3" d="M5945.9,1519.8c-17.9,10.5-45,19.1-78.3,19.1-63.5,0-93.1-35.7-93.1-98.6V1264h-60v-55h60v-71h66v71h96v55h-96v170.1c0,40.1,8.6,48.7,42.6,48.7,14.2,0,35.2-4.3,51.8-12.9Z" transform="translate(-0.4 -9.79)"/></svg>